<svg width="48" height="48" viewBox="0 0 48 48" fill="none" xmlns="http://www.w3.org/2000/svg">
<path d="M15 13.5C15 11.72 15.5278 9.97991 16.5168 8.49987C17.5057 7.01983 18.9113 5.86628 20.5558 5.18509C22.2004 4.5039 24.01 4.32567 25.7558 4.67294C27.5016 5.0202 29.1053 5.87737 30.364 7.13604C31.6226 8.39472 32.4798 9.99836 32.8271 11.7442C33.1743 13.49 32.9961 15.2996 32.3149 16.9442C31.6337 18.5887 30.4802 19.9943 29.0001 20.9832C27.5201 21.9722 25.78 22.5 24 22.5C21.6131 22.5 19.3239 21.5518 17.636 19.864C15.9482 18.1761 15 15.887 15 13.5ZM39 43.5H9C7.80653 43.5 6.66193 43.0259 5.81802 42.182C4.97411 41.3381 4.5 40.1935 4.5 39C4.5 35.4196 5.92232 31.9858 8.45406 29.4541C10.9858 26.9223 14.4196 25.5 18 25.5H30C33.5804 25.5 37.0142 26.9223 39.5459 29.4541C42.0777 31.9858 43.5 35.4196 43.5 39C43.5 40.1935 43.0259 41.3381 42.182 42.182C41.3381 43.0259 40.1935 43.5 39 43.5Z" fill="black"/>
</svg>
