<svg width="40" height="40" viewBox="0 0 40 40" fill="none" xmlns="http://www.w3.org/2000/svg">
<path d="M38.1817 11.8788C37.5757 11.8788 36.9696 12.4848 36.9696 13.0909C36.9696 13.0909 36.9696 13.0909 36.9696 13.2121V24.9697C36.9696 26.9091 35.3938 28.6061 33.3332 28.6061H30.7878C30.4241 28.6061 30.1817 28.7273 29.9393 28.9697C29.6969 29.2121 29.5757 29.4545 29.5757 29.8182V32.4848L25.0908 28.8485C24.8484 28.7273 24.606 28.6061 24.3635 28.6061H6.66656H6.54535C5.93929 28.6061 5.33323 29.0909 5.33323 29.8182C5.33323 30.4242 5.81808 31.0303 6.54535 31.0303H13.8181H13.9393H23.9999L30.0605 36C30.3029 36.1212 30.5453 36.2424 30.7878 36.2424C31.0302 36.2424 31.1514 36.2424 31.2726 36.1212C31.6363 35.8788 31.9999 35.5151 31.9999 35.0303V31.0303H33.3332C36.7272 31.0303 39.3938 28.3636 39.3938 24.9697V13.0909C39.3938 12.4848 38.7878 11.8788 38.1817 11.8788ZM3.0302 24.9697V9.81818C3.0302 7.87878 4.60596 6.18181 6.66656 6.18181H33.3332C35.2726 6.18181 36.8484 7.75757 36.9696 9.57575C36.9696 10.1818 37.5757 10.7879 38.3029 10.6667C39.0302 10.6667 39.515 10.0606 39.3938 9.45454C39.1514 6.30302 36.606 3.75757 33.4544 3.75757H6.66656C3.27262 3.75757 0.605957 6.42424 0.605957 9.81818V24.9697C0.605957 26.5454 1.21202 28.1212 2.42414 29.3333C2.66656 29.5758 2.90899 29.697 3.27262 29.697C3.63626 29.697 3.87868 29.5758 4.12111 29.3333C4.36353 29.0909 4.48474 28.8485 4.48474 28.4848C4.48474 28.1212 4.36353 27.8788 4.12111 27.6364C3.39384 26.9091 3.0302 25.9394 3.0302 24.9697Z" fill="#2E3238"/>
<path d="M9.57568 16.7273C9.57568 17.8182 10.5454 18.7879 11.6363 18.7879C12.7272 18.7879 13.6969 17.8182 13.6969 16.7273C13.6969 15.6364 12.7272 14.6667 11.6363 14.6667C10.4242 14.6667 9.57568 15.5152 9.57568 16.7273ZM17.9393 16.7273C17.9393 17.8182 18.909 18.7879 19.9999 18.7879C21.0908 18.7879 22.0605 17.8182 22.0605 16.7273C22.0605 15.6364 21.0908 14.6667 19.9999 14.6667C18.909 14.6667 17.9393 15.5152 17.9393 16.7273ZM26.303 16.7273C26.303 17.8182 27.2727 18.7879 28.3636 18.7879C29.4545 18.7879 30.4242 17.8182 30.4242 16.7273C30.4242 15.6364 29.4545 14.6667 28.3636 14.6667C27.2727 14.6667 26.303 15.5152 26.303 16.7273Z" fill="#2E3238"/>
</svg>
