<svg width="32" height="32" viewBox="0 0 32 32" fill="none" xmlns="http://www.w3.org/2000/svg">
<g clip-path="url(#clip0_1178_75)">
<path d="M26.7102 0.939997C26.1202 0.349967 25.1802 0.349967 24.5902 0.939997L13.2002 12.33C13.0202 12.5 12.9002 12.72 12.8202 12.96L10.9602 19.17C10.8002 19.7 10.9502 20.27 11.3402 20.66C11.6202 20.95 12.0102 21.1 12.4002 21.1C12.5401 21.1 12.6902 21.0799 12.8302 21.04L19.0401 19.18C19.2802 19.1 19.5002 18.98 19.6701 18.8L31.0602 7.40997C31.3402 7.13 31.5002 6.75 31.5002 6.34998C31.5002 5.95002 31.3402 5.57001 31.0602 5.28998L26.7102 0.939997Z" fill="black"/>
<path d="M30 14.5C29.1714 14.5 28.5 15.1719 28.5 16V26C28.5 27.3789 27.3784 28.5 26 28.5H6C4.62158 28.5 3.5 27.3789 3.5 26V6C3.5 4.62109 4.62158 3.5 6 3.5H16C16.8286 3.5 17.5 2.82812 17.5 2C17.5 1.17188 16.8286 0.5 16 0.5H6C2.96729 0.5 0.5 2.96777 0.5 6V26C0.5 29.0322 2.96729 31.5 6 31.5H26C29.0327 31.5 31.5 29.0322 31.5 26V16C31.5 15.1719 30.8286 14.5 30 14.5Z" fill="black"/>
</g>
</svg>
