<svg width="40" height="40" viewBox="0 0 40 40" fill="none" xmlns="http://www.w3.org/2000/svg">
<path d="M21.6667 26.6667C22.6667 27.1667 24 27 24.8333 26.3333L33.5 19.1667C34.3333 18.5 34.8333 17.3333 34.8333 16.3333C34.8333 15.3333 34.5 14 33.6667 13.3333L25 6.16667C24.1667 5.5 22.8333 5.33333 21.8333 5.83333C20.8333 6.33333 20.1667 7.33333 20.1667 8.5V10.3333H17.8333C10.6667 10.5 5 16 5 22.8333V30.1667C5 31.5 5.83333 32.6667 7.16667 33C7.5 33 7.66667 33.1667 8 33.1667C9 33.1667 10 32.6667 10.5 31.6667L13.3333 26.6667C14.6667 24.3333 17.1667 22.6667 19.8333 22.1667V23.8333C20 25.1667 20.6667 26.1667 21.6667 26.6667ZM10.6667 25L8.33333 28.8333V22.8333C8.33333 17.8333 12.5 13.6667 17.8333 13.6667H21.6667C22.6667 13.6667 23.3333 13 23.3333 12V9.33333L31.5 16C31.6667 16 31.6667 16.1667 31.6667 16.3333C31.6667 16.5 31.6667 16.5 31.5 16.6667L23.3333 23.3333V20.5C23.3333 19.5 22.6667 18.8333 21.6667 18.8333C17.1667 18.8333 12.8333 21.1667 10.6667 25Z" fill="black"/>
</svg>
