<svg width="48" height="48" viewBox="0 0 48 48" fill="none" xmlns="http://www.w3.org/2000/svg">
<g clip-path="url(#clip0_1096_9)">
<path d="M16.7615 45.056V37.7175C16.7615 35.8441 18.3718 34.3255 20.3582 34.3255H27.6192C28.5731 34.3255 29.4879 34.6829 30.1624 35.319C30.8369 35.9551 31.2158 36.8179 31.2158 37.7175V45.056C31.2098 45.8348 31.5336 46.5837 32.1155 47.1364C32.6973 47.6891 33.489 48 34.3148 48H39.2686C41.5822 48.0056 43.8032 47.1428 45.4413 45.6019C47.0794 44.061 48 41.9687 48 39.7868V18.8805C48 17.1179 47.1715 15.446 45.738 14.3152L28.886 1.62208C25.9545 -0.603452 21.7544 -0.531595 18.9105 1.79275L2.44298 14.3152C0.94166 15.4127 0.0443426 17.0895 0 18.8805V39.7654C0 44.3132 3.90917 48 8.73139 48H13.5721C15.2873 48 16.6813 46.6949 16.6937 45.0773L16.7615 45.056Z" fill="black"/>
</g>
<defs>
<clipPath id="clip0_1096_9">
<rect width="48" height="48" fill="white"/>
</clipPath>
</defs>
</svg>
