<svg width="40" height="40" viewBox="0 0 40 40" fill="none" xmlns="http://www.w3.org/2000/svg">
<path d="M35.9499 11.7833C35.5577 10.2276 34.7605 8.80353 33.6392 7.65595C32.518 6.50836 31.1128 5.67824 29.5666 5.25001C27.6999 4.78334 24.0833 4.61667 19.9999 8.33334C15.9333 4.63334 12.3333 4.78334 10.4666 5.25001C8.91936 5.67426 7.51209 6.50074 6.38793 7.64539C5.26377 8.79004 4.46284 10.212 4.06661 11.7667C3.56008 13.7839 3.60202 15.8999 4.18809 17.8955C4.77417 19.8911 5.88306 21.6937 7.39994 23.1167L18.7833 34.5C18.9415 34.6615 19.131 34.7892 19.3402 34.8751C19.5494 34.9611 19.7738 35.0036 19.9999 35C20.4396 34.9937 20.8589 34.814 21.1666 34.5L32.5499 23.1333C34.0786 21.7175 35.2001 19.918 35.798 17.9221C36.3959 15.9261 36.4484 13.8064 35.9499 11.7833ZM30.1833 20.7667L19.9999 30.9667L9.76661 20.7667C8.66337 19.7637 7.84944 18.483 7.40971 17.0583C6.96999 15.6336 6.92057 14.117 7.26661 12.6667C7.51019 11.6809 8.00759 10.7761 8.70934 10.0422C9.41109 9.30825 10.2927 8.77083 11.2666 8.48334C11.6645 8.38363 12.0731 8.33325 12.4833 8.33334C13.7003 8.44046 14.8835 8.79066 15.9628 9.36322C17.042 9.93578 17.9955 10.7191 18.7666 11.6667C18.9201 11.8322 19.1056 11.9648 19.3119 12.0565C19.5181 12.1482 19.7409 12.197 19.9666 12.2C20.1951 12.1993 20.4211 12.1515 20.6304 12.0598C20.8397 11.968 21.0279 11.8342 21.1833 11.6667C23.7166 9.00001 26.4166 7.85001 28.7666 8.43334C29.7429 8.72556 30.6243 9.27126 31.321 10.0149C32.0178 10.7585 32.5051 11.6735 32.7333 12.6667C33.0733 14.1214 33.016 15.6408 32.5674 17.0659C32.1188 18.4909 31.2954 19.7691 30.1833 20.7667Z" fill="black"/>
</svg>
