<svg width="36" height="34" viewBox="0 0 36 34" fill="none" xmlns="http://www.w3.org/2000/svg">
<path fill-rule="evenodd" clip-rule="evenodd" d="M36 16.7083C36 18.7001 34.827 20.5052 33.0068 21.3141L7.5681 32.6202C6.8772 32.9273 6.1294 33.086 5.3733 33.086C2.66581 33.086 0.42337 31.095 0.0301704 28.4973C-0.0511096 27.9602 0.0422005 27.4164 0.186531 26.8927L2.94944 16.869C2.97844 16.7638 2.97844 16.6527 2.94944 16.5475L0.186531 6.5238C0.0422005 6.0002 -0.0511096 5.4563 0.0301804 4.9193C0.42337 2.3215 2.66581 0.330566 5.3733 0.330566C6.1294 0.330566 6.8772 0.489246 7.5681 0.796346L33.0068 12.1024C34.827 12.9114 36 14.7164 36 16.7083ZM9.3896 14.6083C8.2298 14.6083 7.2896 15.5485 7.2896 16.7083C7.2896 17.8681 8.2298 18.8083 9.3896 18.8083H15.3993C16.5591 18.8083 17.4993 17.8681 17.4993 16.7083C17.4993 15.5485 16.5591 14.6083 15.3993 14.6083H9.3896Z" fill="#0000FF"/>
</svg>
